PathFileType	4	(X/Y/Z)	C:\Users\WrightLab\Desktop\Jo\P1.2Trial16.trc
DataRate	CameraRate	NumFrames	NumMarkers	Units	OrigDataRate	OrigDataStartFrame	OrigNumFrames
100.00	100.00	       6	19	mm	100.00	174	       463
Frame#	Time	Headset_Front			Headset_Back			Headset_Left			Headset_Right			Left_Shoulder			Right_Shoulder			Sternum			C7			Left Elbow			Right Elbow			Left Wrist			Right Wrist			Left ASIS			Right ASIS			S2			Left Knee			Right Knee			Left Ankle			Right Ankle			
		X1	Y1	Z1	X2	Y2	Z2	X3	Y3	Z3	X4	Y4	Z4	X5	Y5	Z5	X6	Y6	Z6	X7	Y7	Z7	X8	Y8	Z8	X9	Y9	Z9	X10	Y10	Z10	X11	Y11	Z11	X12	Y12	Z12	X13	Y13	Z13	X14	Y14	Z14	X15	Y15	Z15	X16	Y16	Z16	X17	Y17	Z17	X18	Y18	Z18	X19	Y19	Z19	

174	1.730	-59.32509	1383.27124	743.51068	-160.91911	1521.64087	490.45950	-15.68489	1456.92737	550.30182	-195.55484	1423.66992	690.18115	47.47688	1246.88940	418.31482	-324.40253	1260.71912	631.60596	-75.55164	1183.92004	629.03406	-193.04005	1312.03052	433.48138	119.39742	969.42566	351.72177	-448.59595	1033.06848	581.50128	245.25810	784.55524	441.00836	-566.38580	810.73700	646.64166	14.43416	874.37152	523.73474	-199.46712	863.28748	693.20618	-255.22867	915.71100	379.56256	-39.68493	432.94745	448.56189	-136.70134	473.91229	736.68939	-152.80031	103.11259	334.50348	-61.91316	177.38335	824.56226	
175	1.740	-55.58272	1382.19604	753.61865	-156.50645	1519.76331	499.84158	-11.35441	1455.20850	559.14801	-191.43680	1421.87512	699.66730	51.79966	1245.43176	428.09280	-320.49707	1258.73560	641.95135	-70.41951	1182.81604	639.21613	-189.27324	1310.41003	443.01862	124.74192	967.56995	361.59778	-443.54593	1031.24768	588.91663	250.61432	782.86206	449.83755	-562.54572	808.81146	650.50952	19.13187	872.96741	532.99170	-193.90126	861.63788	703.42542	-249.55338	913.55450	390.27585	-33.78117	430.92804	453.99420	-127.45078	471.94113	744.76245	-152.01009	103.40689	335.25439	-48.51751	181.88013	836.95404	
176	1.750	-51.94060	1381.36951	763.35364	-152.10561	1517.40625	509.06802	-6.90582	1453.15381	569.75549	-187.70445	1420.75232	709.05969	56.06303	1243.56360	437.90125	-315.87167	1256.24402	651.37714	-65.29095	1180.99658	649.36926	-184.60686	1307.80945	453.90479	129.47629	966.48053	371.72586	-438.55814	1029.34448	596.66351	255.61090	781.23853	459.51785	-558.07770	806.04138	656.51947	24.85716	871.65704	542.31976	-188.05365	859.80823	713.09851	-243.69589	911.30603	401.19327	-27.72430	429.26440	460.26776	-118.55656	470.73340	753.62946	-150.60869	104.76440	334.76694	-36.66890	184.83885	848.15967	
177	1.760	-48.47520	1380.15918	773.81622	-147.52773	1515.26855	518.14636	-2.95411	1451.36499	579.95300	-183.81018	1419.53271	718.48157	60.31942	1242.34875	447.64651	-311.81097	1253.08850	661.67310	-60.59428	1179.66553	659.43958	-181.40837	1306.06531	463.68314	133.81673	964.94073	380.69812	-433.55026	1027.11230	604.69885	261.34644	780.60474	469.48148	-553.69617	803.59314	662.22260	31.54552	871.08691	553.23260	-181.66672	857.22205	723.52460	-237.46997	908.44281	412.66367	-21.77150	427.00476	466.40689	-109.52769	470.26746	762.44464	-149.69679	105.12444	336.22430	-27.18126	185.87100	858.42383	
178	1.770	-45.44602	1379.45508	784.35004	-143.14542	1513.19421	527.57489	1.18033	1449.64807	589.99933	-180.78949	1418.41370	728.72076	63.84159	1240.66064	457.36481	-306.36365	1250.53186	671.97198	-55.23438	1178.09082	670.27856	-177.36951	1303.98132	473.87891	138.31450	963.60791	389.89456	-428.79865	1024.45557	613.28973	266.33371	779.76080	476.76077	-549.57422	801.26331	667.71118	38.36292	870.27081	564.40143	-175.56839	855.48383	734.02808	-231.19856	905.98584	423.71439	-16.23430	425.16168	473.22763	-100.34094	470.29944	773.16742	-147.87846	106.78571	337.48914	-18.17926	184.04146	865.81665	
179	1.780	-41.56302	1378.34155	794.42963	-139.11092	1511.87585	537.47668	4.95545	1447.85535	599.53394	-176.79921	1417.64697	738.26617	67.65038	1239.51404	467.02838	-302.43484	1247.78235	682.57874	-50.90726	1177.10266	680.76978	-173.75148	1301.57971	485.02155	142.30844	962.55792	399.45633	-424.09039	1022.06506	621.76733	270.71988	778.69751	484.78369	-545.17889	798.62030	674.18738	44.11995	869.63660	574.03357	-169.28900	853.31018	744.63574	-224.79700	903.03699	435.11539	-10.09219	424.56442	480.01959	-90.08878	470.33945	784.61346	-147.61050	107.84341	338.16290	-9.84617	178.18164	872.15283	
